<?xml version="1.0" standalone="no"?>
<!DOCTYPE svg PUBLIC "-//W3C//DTD SVG 20010904//EN"
 "http://www.w3.org/TR/2001/REC-SVG-20010904/DTD/svg10.dtd">
<svg version="1.0" xmlns="http://www.w3.org/2000/svg"
 width="452.000000pt" height="452.000000pt" viewBox="0 0 452.000000 452.000000"
 preserveAspectRatio="xMidYMid meet">

<g transform="translate(0.000000,452.000000) scale(0.100000,-0.100000)"
fill="#000000" stroke="none">
<path d="M2040 4483 c-360 -35 -714 -161 -1016 -362 -549 -364 -904 -932 -990
-1582 -22 -173 -15 -498 15 -658 88 -467 294 -861 620 -1188 374 -375 857
-602 1386 -653 811 -76 1614 310 2071 997 495 745 493 1714 -7 2459 -364 543
-942 898 -1590 979 -111 13 -388 18 -489 8z m220 -178 l0 -95 -30 0 -30 0 0
65 0 65 -75 0 -75 0 0 30 0 30 105 0 105 0 0 -95z m138 58 c2 -25 8 -33 23
-33 14 0 19 -7 19 -30 0 -23 -4 -30 -20 -30 -19 0 -20 -7 -20 -110 l0 -110
-30 0 c-23 0 -30 4 -30 20 0 22 1 22 -190 24 l-105 1 -3 27 c-3 24 1 27 30 30
29 3 33 7 36 36 3 28 7 32 33 32 27 0 29 -3 29 -35 l0 -36 83 3 82 3 3 123 3
123 27 -3 c22 -2 28 -9 30 -35z m-609 -87 c24 -79 23 -89 -15 -100 -17 -5 -23
-1 -31 26 -7 27 -14 32 -33 30 -40 -4 -57 51 -19 61 16 4 20 11 16 27 -4 15 0
24 16 30 12 5 26 7 32 6 5 -1 21 -37 34 -80z m1029 68 c12 -4 22 -14 22 -24 0
-12 11 -20 36 -24 26 -5 34 -11 30 -22 -3 -9 -6 -20 -6 -25 0 -5 -7 -9 -15 -9
-9 0 -15 -10 -15 -26 0 -15 -12 -38 -30 -56 -27 -26 -36 -30 -67 -25 -20 4
-47 17 -60 29 -21 20 -24 30 -20 71 2 26 0 47 -5 47 -5 0 -8 10 -6 23 3 19 8
22 46 20 31 -1 42 2 42 13 0 15 12 17 48 8z m-1260 -39 c7 -13 14 -14 37 -5
35 13 51 8 58 -20 4 -16 1 -24 -14 -27 -26 -7 -24 -12 14 -44 l32 -28 -22 -22
-22 -22 -40 36 c-23 21 -45 37 -50 37 -5 0 -15 -25 -22 -55 -9 -39 -17 -55
-28 -55 -28 0 -43 16 -37 39 3 11 9 30 12 42 5 18 3 20 -16 14 -24 -8 -40 7
-40 37 0 10 11 19 31 23 19 4 34 16 39 30 8 20 21 29 52 34 4 0 11 -6 16 -14z
m1460 -31 c15 -4 22 -14 22 -30 0 -15 6 -24 15 -24 17 0 18 -4 9 -37 -4 -14
-14 -23 -25 -23 -12 0 -21 -11 -27 -32 -7 -27 -13 -32 -33 -30 -43 6 -42 4 -8
145 10 39 11 40 47 31z m-185 -168 c87 -18 160 -35 162 -38 4 -3 -24 -139 -30
-146 -1 -2 -15 0 -30 4 -26 6 -27 9 -21 54 l6 47 -135 28 c-135 28 -135 28
-135 57 0 16 5 28 13 28 6 0 83 -15 170 -34z m652 -92 c74 -58 135 -107 135
-110 0 -12 -106 -144 -116 -144 -6 0 -18 8 -28 18 -15 18 -14 22 24 69 l40 50
-115 88 -114 87 17 24 c9 13 18 24 20 24 1 0 63 -48 137 -106z m-2266 -9 l31
-43 -26 -17 c-14 -9 -29 -13 -33 -8 -4 4 -30 37 -56 72 l-48 64 24 20 24 19
26 -32 c15 -17 41 -51 58 -75z m639 53 c3 -13 5 -25 4 -27 -1 -3 -325 -109
-339 -111 -1 0 -9 24 -19 53 -9 28 -19 57 -21 63 -5 13 54 37 60 26 3 -4 7
-19 11 -34 3 -16 12 -28 19 -27 6 0 64 18 127 39 138 46 150 47 158 18z m502
-58 c250 -16 436 -64 657 -170 66 -32 150 -77 185 -100 140 -95 314 -248 387
-341 19 -24 16 -24 -53 12 -269 142 -631 244 -985 279 -225 22 -631 7 -821
-31 -318 -63 -564 -145 -760 -252 l-75 -41 31 39 c44 55 165 170 252 239 255
202 603 339 925 366 51 4 97 8 102 8 6 1 75 -3 155 -8z m-1311 -55 c39 -39 36
-98 -8 -137 -29 -26 -39 -30 -75 -25 -98 13 -119 136 -31 186 29 17 85 5 114
-24z m2181 -71 l45 -36 26 31 c30 36 40 38 63 12 16 -17 15 -20 -10 -51 -16
-18 -23 -35 -17 -38 5 -4 37 -29 71 -56 60 -47 61 -49 45 -72 -8 -13 -20 -21
-27 -17 -6 4 -72 54 -146 112 -74 57 -137 106 -139 108 -5 4 30 43 38 43 3 0
26 -16 51 -36z m-1900 -19 c7 -14 11 -27 9 -28 -72 -61 -282 -208 -288 -201
-44 51 -72 97 -67 109 11 29 38 30 62 2 13 -15 27 -27 31 -27 4 0 58 38 118
85 61 46 113 84 116 84 3 1 12 -10 19 -24z m910 -465 l0 -240 -32 -2 c-102 -5
-236 21 -364 72 -86 34 -154 70 -154 80 0 4 36 46 80 93 137 146 295 232 433
236 l37 1 0 -240z m176 219 c90 -27 175 -75 250 -141 62 -54 154 -155 154
-170 0 -13 -114 -66 -208 -98 -105 -35 -241 -59 -299 -53 l-43 5 0 239 0 239
39 0 c21 0 70 -9 107 -21z m261 15 c-3 -3 -12 -4 -19 -1 -8 3 -5 6 6 6 11 1
17 -2 13 -5z m-925 -30 c-46 -13 -132 -46 -192 -73 l-109 -48 -27 28 -26 28
51 15 c49 14 245 59 301 69 74 13 75 3 2 -19z m1145 -10 c62 -14 135 -32 164
-40 l51 -15 -27 -29 -27 -28 -86 41 c-48 22 -132 56 -187 74 -86 29 -93 32
-50 27 28 -3 100 -16 162 -30z m-966 -11 c-70 -42 -204 -161 -242 -217 -13
-20 -28 -36 -33 -36 -12 0 -127 83 -150 109 l-19 21 76 35 c125 58 335 121
412 124 11 1 -9 -16 -44 -36z m724 13 c105 -26 217 -65 319 -110 l59 -27 -34
-29 c-19 -16 -57 -46 -85 -66 l-51 -36 -114 114 c-76 76 -134 124 -174 146
-73 38 -54 40 80 8z m751 -167 c165 -72 372 -202 498 -312 l49 -43 -69 -41
c-82 -48 -210 -113 -223 -113 -5 0 -20 17 -32 38 -89 147 -269 330 -432 439
l-105 70 30 30 30 31 82 -30 c44 -16 122 -47 172 -69z m-2006 64 c24 -25 24
-26 6 -37 -205 -123 -369 -275 -499 -462 -42 -61 -55 -73 -72 -68 -24 7 -169
84 -231 122 l-44 28 63 53 c81 69 260 187 367 244 108 56 327 146 360 146 14
0 36 -10 50 -26z m98 -94 c25 -22 65 -52 89 -67 23 -15 42 -31 43 -35 0 -5
-18 -40 -41 -79 -75 -128 -153 -324 -174 -440 -6 -29 -12 -38 -27 -38 -44 0
-331 91 -466 147 l-33 14 22 37 c72 119 218 278 344 374 55 41 185 128 193
128 2 0 25 -18 50 -41z m1744 -76 c47 -35 128 -108 180 -161 101 -106 206
-249 192 -262 -32 -29 -468 -168 -496 -158 -8 3 -20 32 -27 64 -28 124 -125
353 -190 449 -12 17 -21 33 -21 37 0 4 20 21 45 38 24 17 65 49 91 71 l46 40
47 -27 c25 -15 85 -56 133 -91z m-301 -212 c51 -103 113 -276 125 -348 6 -41
5 -43 -18 -43 -19 0 -33 11 -53 43 -104 157 -282 293 -464 352 l-54 18 83 24
c87 25 200 71 253 103 l31 19 24 -35 c13 -19 46 -79 73 -133z m-1190 123 c76
-38 237 -94 272 -94 12 -1 -13 -14 -56 -30 -193 -72 -359 -202 -462 -362 -11
-18 -26 -28 -42 -28 -24 0 -25 2 -18 38 12 66 66 225 106 310 46 99 107 202
120 202 5 0 41 -16 80 -36z m681 -133 c392 -89 670 -428 671 -821 1 -332 -172
-613 -473 -768 -95 -49 -199 -74 -325 -79 -202 -9 -350 29 -505 128 -80 51
-195 163 -251 244 -50 71 -105 206 -125 304 -26 133 -16 298 26 423 36 107
102 223 176 306 124 141 341 253 534 276 52 6 223 -2 272 -13z m-1697 -163
c117 -59 111 -54 97 -70 -20 -25 -90 -206 -111 -287 -11 -45 -25 -129 -32
-186 l-12 -105 -250 0 -250 0 7 71 c21 213 119 424 284 616 l63 73 52 -31 c29
-16 97 -53 152 -81z m3406 -86 c103 -148 172 -331 186 -489 l6 -73 -250 0
-250 0 -7 82 c-13 153 -63 336 -128 463 l-25 49 115 59 c63 32 131 70 151 83
l36 25 58 -63 c32 -35 80 -96 108 -136z m-3195 -10 c103 -43 206 -78 328 -112
60 -16 111 -32 113 -34 3 -2 -2 -53 -11 -113 -13 -94 -25 -222 -26 -275 0 -17
-22 -18 -315 -18 l-315 0 0 49 c0 70 26 214 56 306 26 79 89 225 97 225 2 0
35 -13 73 -28z m2723 -29 c64 -129 112 -309 124 -470 l4 -53 -317 0 -317 0 -7
108 c-3 59 -13 149 -21 201 -9 52 -14 95 -12 97 1 2 73 23 159 48 86 25 201
64 255 85 54 22 99 40 100 40 2 1 16 -25 32 -56z m-2209 -131 c0 -5 -11 -35
-25 -68 l-26 -59 6 50 c8 69 14 85 31 85 8 0 14 -4 14 -8z m1635 -49 c4 -31 9
-63 11 -72 3 -9 -9 13 -25 48 -36 75 -37 81 -12 81 15 0 20 -10 26 -57z
m-2410 -455 c15 -157 64 -337 125 -458 l30 -60 -82 -41 c-46 -23 -114 -60
-151 -82 l-68 -40 -45 44 c-91 88 -193 246 -247 381 -28 69 -67 244 -67 297
l0 31 249 0 249 0 7 -72z m665 55 c1 -46 13 -169 27 -271 8 -62 13 -115 12
-116 -2 -2 -65 -20 -139 -41 -74 -21 -186 -58 -249 -82 -63 -23 -118 -43 -122
-43 -14 0 -67 113 -99 208 -32 97 -60 242 -60 315 l0 47 315 0 c293 0 315 -1
315 -17z m2445 -10 c-2 -16 -7 -58 -10 -95 -3 -37 -16 -110 -30 -163 -26 -102
-101 -285 -117 -285 -5 0 -69 22 -141 49 -73 27 -188 64 -255 83 l-124 33 6
35 c14 76 35 268 36 318 l0 52 320 0 320 0 -5 -27z m532 -46 c-18 -207 -128
-437 -305 -637 l-39 -45 -49 28 c-27 15 -94 51 -149 78 -55 28 -102 53 -104
55 -2 1 16 47 39 101 52 120 96 291 106 407 l7 86 250 0 250 0 -6 -73z m-1231
-257 c-7 -36 -15 -64 -19 -63 -4 1 -12 3 -18 5 -5 2 2 30 17 66 15 34 28 61
30 60 1 -2 -4 -32 -10 -68z m-1645 -61 c-21 -8 -27 5 -36 71 l-6 55 29 -60
c25 -52 27 -61 13 -66z m64 -76 c94 -149 290 -298 465 -354 30 -9 48 -19 40
-22 -8 -3 -53 -17 -100 -31 -47 -14 -122 -43 -168 -66 -46 -22 -85 -40 -87
-40 -10 0 -102 173 -136 255 -37 92 -89 255 -89 281 0 11 9 16 40 23 3 0 18
-20 35 -46z m1551 -4 c-17 -105 -147 -415 -204 -487 l-19 -24 -74 37 c-78 40
-230 95 -261 95 -33 0 -19 17 25 29 55 16 190 85 242 122 63 46 163 148 211
216 36 49 48 60 65 56 18 -5 20 -11 15 -44z m-1630 -94 c31 -106 128 -325 181
-409 18 -28 18 -28 -7 -45 -13 -9 -54 -40 -90 -68 -36 -29 -70 -53 -76 -53
-19 0 -186 116 -264 183 -96 83 -200 203 -264 304 l-26 43 28 14 c72 36 452
159 476 152 4 -1 24 -55 42 -121z m1849 78 c99 -29 321 -108 333 -119 2 -1 -8
-22 -22 -46 -42 -72 -152 -202 -234 -278 -75 -70 -272 -210 -294 -210 -7 0
-32 17 -57 38 -25 20 -64 50 -86 66 -22 16 -41 31 -43 32 -2 1 18 39 43 83 70
121 137 290 175 439 13 49 -2 50 185 -5z m-2401 -178 c90 -153 270 -332 455
-453 l83 -55 -30 -29 -30 -30 -53 17 c-156 51 -369 155 -516 252 -103 69 -218
165 -218 183 0 7 63 46 140 86 77 41 141 74 142 74 0 0 13 -20 27 -45z m2951
-48 c50 -27 95 -54 102 -59 29 -23 -212 -200 -417 -306 -112 -58 -336 -152
-363 -152 -7 0 -25 13 -40 28 l-27 28 93 62 c178 117 320 257 425 418 l47 71
45 -20 c25 -11 86 -42 135 -70z m-1595 -392 l0 -245 -23 0 c-53 0 -186 43
-256 83 -74 41 -234 186 -259 234 -10 19 -8 23 22 41 112 66 333 130 454 131
l62 1 0 -245z m220 229 c143 -27 360 -115 360 -145 0 -22 -197 -205 -260 -242
-71 -41 -162 -73 -240 -83 l-50 -7 0 240 c0 132 3 243 7 246 11 12 98 8 183
-9z m-724 -251 c50 -59 141 -132 218 -175 l51 -29 -40 7 c-131 20 -429 119
-470 156 -10 9 29 44 114 106 l46 32 18 -22 c10 -13 38 -46 63 -75z m1227 20
c31 -24 57 -49 57 -54 0 -21 -200 -99 -339 -133 -170 -42 -176 -42 -101 3 77
46 182 140 236 211 43 57 34 59 147 -27z m-1698 -135 c646 -232 1434 -220
2063 31 56 23 139 59 183 82 45 22 83 39 85 37 12 -12 -190 -204 -311 -296
-168 -129 -448 -251 -690 -302 -143 -30 -432 -38 -575 -16 -209 31 -372 83
-555 176 -193 98 -371 232 -503 379 l-62 70 128 -61 c70 -33 177 -79 237 -100z
m2617 65 l99 -86 -20 -21 -21 -21 -100 21 c-55 12 -100 18 -99 15 0 -3 29 -30
64 -59 55 -46 63 -57 54 -73 -5 -10 -15 -19 -21 -19 -6 0 -55 39 -109 86 -85
73 -98 88 -89 104 16 31 24 31 119 10 50 -11 94 -20 98 -20 5 1 -21 27 -57 59
-56 51 -63 61 -51 75 7 9 18 16 23 16 6 0 55 -39 110 -87z m-2306 -67 c56 -25
139 -56 185 -70 46 -13 76 -25 67 -25 -25 -1 -262 47 -351 71 l-78 21 28 29
c15 16 32 26 38 24 5 -3 56 -25 111 -50z m1508 25 l27 -28 -78 -22 c-96 -25
-251 -58 -318 -66 -43 -5 -39 -2 35 20 78 24 245 92 280 115 21 14 23 13 54
-19z m572 -116 c115 -68 112 -221 -5 -256 -113 -34 -233 125 -165 218 22 31
78 63 108 63 11 0 38 -11 62 -25z m-2648 -50 c19 4 33 1 40 -7 8 -11 -10 -37
-80 -117 l-91 -102 -20 20 -21 20 62 69 61 69 -21 21 c-18 18 -19 23 -8 37 12
14 14 14 31 -1 12 -11 27 -14 47 -9z m2412 -100 c0 -7 -22 -28 -50 -46 -52
-36 -59 -49 -35 -69 12 -10 24 -6 64 23 47 34 50 35 66 17 16 -17 14 -20 -34
-56 -28 -21 -51 -41 -51 -44 0 -3 8 -15 18 -28 l18 -23 57 41 c47 34 61 39 72
30 8 -7 15 -16 15 -21 0 -11 -145 -119 -159 -119 -8 0 -161 202 -161 213 0 3
35 31 77 61 58 42 80 53 90 45 7 -7 13 -17 13 -24z m-2141 -70 c16 -8 34 -28
41 -45 17 -42 -8 -107 -65 -166 -50 -53 -95 -60 -139 -19 -31 29 -38 89 -9 83
10 -2 24 -16 31 -31 15 -31 51 -37 72 -12 15 18 15 18 -25 31 -56 18 -59 92
-5 145 32 32 57 36 99 14z m1991 -154 c33 -62 59 -115 58 -116 -2 -1 -13 -7
-25 -14 -24 -12 -36 -1 -64 62 -15 32 -18 33 -70 7 l-40 -21 31 -54 c30 -52
30 -54 11 -64 -11 -6 -24 -11 -29 -11 -6 0 -38 53 -72 117 -58 109 -61 118
-44 130 10 7 22 13 26 13 8 0 43 -52 51 -75 2 -6 24 0 50 12 l46 22 -26 46
c-14 25 -24 47 -22 49 16 13 45 23 51 18 3 -4 34 -58 68 -121z m-1696 8 c54
-25 57 -90 10 -187 -26 -52 -63 -82 -103 -82 -30 0 -81 48 -81 76 0 34 37 33
50 -1 11 -29 35 -32 62 -8 24 22 23 28 -9 30 -31 1 -73 44 -73 74 0 25 16 57
43 87 23 24 62 29 101 11z m1420 -40 c33 -26 33 -37 0 -50 -21 -7 -31 -6 -44
6 -39 35 -90 4 -90 -54 0 -45 32 -99 64 -107 34 -8 66 12 66 42 0 17 8 27 26
34 35 14 34 14 34 -26 0 -28 -8 -44 -34 -70 -85 -85 -216 -6 -216 132 0 39 5
51 34 80 30 30 41 34 84 34 35 0 57 -6 76 -21z m-254 -41 c0 -2 11 -61 25
-132 14 -71 24 -130 23 -131 -2 -1 -15 -5 -29 -8 -22 -6 -33 3 -92 74 -37 45
-67 75 -67 68 0 -8 6 -48 14 -89 8 -41 14 -75 13 -76 -1 -1 -13 -4 -27 -6 -24
-3 -26 0 -51 127 -15 72 -24 133 -22 138 2 4 17 7 32 7 23 0 40 -14 91 -75 35
-41 64 -75 65 -75 1 0 -4 28 -11 63 -21 97 -19 117 11 117 14 0 25 -1 25 -2z
m-804 -31 c2 -1 -6 -38 -17 -81 -15 -58 -17 -81 -9 -86 16 -10 8 -45 -10 -45
-8 0 -17 -11 -20 -25 -3 -14 -11 -25 -18 -24 -7 1 -19 2 -27 3 -11 1 -14 11
-13 33 3 30 0 32 -40 42 -24 6 -43 14 -43 19 1 4 1 14 1 23 0 9 30 47 67 86
61 62 71 69 97 64 16 -4 31 -7 32 -9z m535 -9 c5 -19 25 -265 22 -270 -2 -5
-15 -8 -28 -8 -28 0 -31 13 -41 159 -5 82 -4 105 7 112 13 8 38 12 40 7z"/>
<path d="M2753 4234 c-3 -8 2 -23 11 -32 15 -15 17 -15 32 0 21 21 11 48 -16
48 -11 0 -23 -7 -27 -16z"/>
<path d="M956 3904 c-20 -19 -20 -29 0 -48 19 -19 26 -20 42 -4 18 18 14 46
-7 58 -15 7 -23 6 -35 -6z"/>
<path d="M1854 2954 c-68 -33 -72 -179 -11 -368 l35 -106 -27 -6 c-14 -3 -69
-16 -122 -29 -373 -90 -370 -275 5 -370 54 -14 109 -25 122 -25 28 0 28 0 9
-46 -8 -20 -26 -77 -40 -128 -44 -161 -29 -282 39 -315 25 -12 36 -11 80 2 61
20 169 104 252 198 l59 66 83 -88 c90 -96 181 -163 244 -179 33 -9 44 -8 71 7
45 27 57 57 57 147 0 59 -8 105 -31 185 -17 58 -34 115 -36 127 -4 19 3 22 83
38 203 40 334 118 334 200 0 79 -129 154 -335 197 -49 10 -90 19 -91 19 0 0
16 49 36 108 62 185 53 342 -19 372 -68 28 -167 -26 -305 -167 l-89 -91 -101
102 c-74 76 -118 111 -165 134 -72 36 -92 38 -137 16z m142 -62 c55 -36 234
-211 234 -229 0 -5 -22 -40 -50 -78 -27 -38 -51 -73 -52 -77 -2 -4 -48 -12
-103 -17 -75 -8 -101 -7 -107 2 -5 7 -22 55 -39 107 -39 120 -51 265 -25 305
25 38 70 33 142 -13z m657 20 c39 -42 25 -193 -32 -352 l-26 -75 -60 3 c-140
5 -138 5 -200 93 l-56 80 41 49 c23 27 73 78 111 114 105 97 185 129 222 88z
m-353 -343 c23 -33 40 -62 37 -65 -2 -3 -41 -4 -86 -2 l-82 3 43 62 c24 35 43
63 44 63 1 0 20 -27 44 -61z m79 -120 c9 -10 39 -57 65 -104 l48 -85 -58 -100
-58 -100 -117 0 c-135 0 -121 -10 -197 130 l-41 75 56 97 c31 54 64 99 72 102
9 2 60 4 114 4 83 0 101 -3 116 -19z m-320 -46 c-60 -107 -55 -106 -89 -30
-16 37 -30 69 -30 71 0 4 39 9 123 14 l28 2 -32 -57z m510 41 c5 -5 -52 -133
-60 -134 -3 0 -13 15 -22 33 -8 17 -28 51 -42 75 l-27 43 74 -7 c40 -3 75 -8
77 -10z m-627 -95 l39 -86 -40 -89 -40 -89 -38 4 c-124 11 -324 86 -357 133
-48 69 29 134 217 183 179 47 170 49 219 -56z m837 60 c150 -39 241 -96 241
-150 0 -57 -109 -114 -293 -156 -60 -13 -110 -23 -112 -21 -1 2 -21 42 -43 91
l-41 87 42 91 41 91 44 -7 c24 -4 79 -15 121 -26z m-689 -341 c0 -6 -140 9
-146 14 -3 3 10 35 27 71 l33 66 43 -74 c24 -41 43 -76 43 -77z m454 81 c15
-34 24 -64 22 -67 -8 -7 -147 -19 -144 -12 16 31 84 140 89 140 4 0 18 -28 33
-61z m-465 -119 c34 0 40 -5 94 -81 31 -44 57 -84 57 -88 0 -5 -36 -47 -80
-94 -86 -91 -179 -161 -232 -172 -27 -6 -36 -3 -55 19 -45 52 -26 208 49 405
8 23 12 23 70 17 33 -3 77 -6 97 -6z m550 -92 c115 -364 13 -451 -235 -203
-50 51 -96 101 -102 112 -9 16 -1 33 46 101 l57 81 65 4 c36 2 81 4 101 5 l35
2 33 -102z m-306 51 c-10 -17 -30 -44 -44 -61 l-25 -31 -35 49 c-57 79 -60 74
36 74 l86 0 -18 -31z"/>
<path d="M3540 850 c-31 -31 -25 -67 19 -111 47 -47 80 -51 111 -12 27 35 20
68 -25 111 -40 37 -76 41 -105 12z"/>
<path d="M1211 624 c-25 -32 -26 -38 -5 -59 20 -20 32 -16 58 18 16 22 18 32
10 45 -17 27 -40 25 -63 -4z"/>
<path d="M1500 479 c-18 -33 -9 -64 21 -67 19 -2 28 3 37 24 7 14 10 35 7 45
-9 26 -51 25 -65 -2z"/>
<path d="M1826 331 c-31 -32 -35 -39 -21 -45 33 -12 42 -5 52 39 6 25 10 45 9
45 -1 0 -19 -17 -40 -39z"/>
</g>
</svg>
